<mxfile host="65bd71144e">
    <diagram id="nLn3GhfT7bZj5KlweuBz" name="Page-1">
        <mxGraphModel dx="1309" dy="681" grid="1" gridSize="10" guides="1" tooltips="1" connect="1" arrows="1" fold="1" page="1" pageScale="1" pageWidth="850" pageHeight="1100" math="0" shadow="0">
            <root>
                <mxCell id="0"/>
                <mxCell id="1" parent="0"/>
                <mxCell id="2" value="" style="whiteSpace=wrap;html=1;" vertex="1" parent="1">
                    <mxGeometry x="100" y="30" width="630" height="660" as="geometry"/>
                </mxCell>
                <mxCell id="3" value="&lt;font style=&quot;font-size: 26px;&quot;&gt;Plants&lt;/font&gt;" style="whiteSpace=wrap;html=1;fillColor=#0066CC;fontColor=#ffffff;strokeColor=#006EAF;" vertex="1" parent="1">
                    <mxGeometry x="160" y="60" width="510" height="60" as="geometry"/>
                </mxCell>
                <mxCell id="4" value="Common Name:&amp;nbsp;&lt;br&gt;Scientific Name:&lt;br&gt;Grow Cycle:&lt;br&gt;Watering Requirements:&lt;br&gt;Sunlight Requirements:&lt;br&gt;&lt;br style=&quot;font-size: 16px;&quot;&gt;&amp;nbsp;&lt;font color=&quot;#000000&quot;&gt;&lt;u&gt;View Listings&lt;/u&gt;&lt;/font&gt;&amp;nbsp; &amp;nbsp;&lt;font color=&quot;#000000&quot;&gt;&lt;u&gt;View Users&lt;/u&gt;&amp;nbsp;&lt;/font&gt; &amp;nbsp; &amp;nbsp; &amp;nbsp; &amp;nbsp;&amp;nbsp;" style="whiteSpace=wrap;html=1;fontSize=18;fillColor=#1ba1e2;fontColor=#ffffff;strokeColor=#006EAF;align=left;" vertex="1" parent="1">
                    <mxGeometry x="170" y="140" width="490" height="170" as="geometry"/>
                </mxCell>
                <mxCell id="5" value="Image" style="whiteSpace=wrap;html=1;fontSize=18;fillColor=#008a00;fontColor=#ffffff;strokeColor=#005700;" vertex="1" parent="1">
                    <mxGeometry x="500" y="175" width="120" height="100" as="geometry"/>
                </mxCell>
                <mxCell id="6" value="Common Name:&amp;nbsp;&lt;br&gt;Scientific Name:&lt;br&gt;Grow Cycle:&lt;br&gt;Watering Requirements:&lt;br&gt;Sunlight Requirements:&lt;br&gt;&lt;br style=&quot;font-size: 16px;&quot;&gt;&amp;nbsp;&lt;font color=&quot;#000000&quot;&gt;&lt;u&gt;View Listings&lt;/u&gt;&lt;/font&gt;&amp;nbsp; &amp;nbsp;&lt;font color=&quot;#000000&quot;&gt;&lt;u&gt;View Users&lt;/u&gt;&amp;nbsp;&lt;/font&gt; &amp;nbsp; &amp;nbsp; &amp;nbsp; &amp;nbsp;&amp;nbsp;" style="whiteSpace=wrap;html=1;fontSize=18;fillColor=#1ba1e2;fontColor=#ffffff;strokeColor=#006EAF;align=left;" vertex="1" parent="1">
                    <mxGeometry x="170" y="340" width="490" height="150" as="geometry"/>
                </mxCell>
                <mxCell id="7" value="Image" style="whiteSpace=wrap;html=1;fontSize=18;fillColor=#008a00;fontColor=#ffffff;strokeColor=#005700;" vertex="1" parent="1">
                    <mxGeometry x="500" y="365" width="120" height="100" as="geometry"/>
                </mxCell>
                <mxCell id="8" value="Common Name:&amp;nbsp;&lt;br&gt;Scientific Name:&lt;br&gt;Grow Cycle:&lt;br&gt;Watering Requirements:&lt;br&gt;Sunlight Requirements:&lt;br&gt;&lt;br style=&quot;font-size: 16px;&quot;&gt;&amp;nbsp;&lt;font color=&quot;#000000&quot;&gt;&lt;u&gt;View Listings&lt;/u&gt;&lt;/font&gt;&amp;nbsp; &amp;nbsp;&lt;font color=&quot;#000000&quot;&gt;&lt;u&gt;View Users&lt;/u&gt;&amp;nbsp;&lt;/font&gt; &amp;nbsp; &amp;nbsp; &amp;nbsp; &amp;nbsp;&amp;nbsp;" style="whiteSpace=wrap;html=1;fontSize=18;fillColor=#1ba1e2;fontColor=#ffffff;strokeColor=#006EAF;align=left;" vertex="1" parent="1">
                    <mxGeometry x="170" y="520" width="490" height="160" as="geometry"/>
                </mxCell>
                <mxCell id="9" value="Image" style="whiteSpace=wrap;html=1;fontSize=18;fillColor=#008a00;fontColor=#ffffff;strokeColor=#005700;" vertex="1" parent="1">
                    <mxGeometry x="500" y="550" width="120" height="100" as="geometry"/>
                </mxCell>
            </root>
        </mxGraphModel>
    </diagram>
</mxfile>